<?xml version="1.0" encoding="utf-8"?>
<svg xmlns="http://www.w3.org/2000/svg" font-family="Andale Mono,AndaleMono,Consolas,monospace" width="975px" height="530px" font-size="16px">
<style>
text, tspan {white-space: pre;}
</style>

<rect width="975px" height="530px" fill="#161b22" rx="15"/>

<text x="15" y="30" fill="#c9d1d9">
  <tspan x="15" y="30">                @%%%@@%%%              </tspan>
  <tspan x="15" y="50">              %%%%%%%%%%%%% %@        </tspan>
  <tspan x="15" y="70">           %%%%%%@%%%%@@%%#%%%%  @%   </tspan>
  <tspan x="15" y="90">         %%%@@@@@@@@@@@%%%%@@@@%%%%   </tspan>
  <tspan x="15" y="110">      %%@@@@@@@@@@@@@@@@@@@@@@@@@@%@  </tspan>
  <tspan x="15" y="130">    %%@@@@@@@@@@@@@@@@@@@@@@@@@@@%#%  </tspan>
  <tspan x="15" y="150">   %%@@@@@@@@@@@@@@@@@@@@@@@@@@@@@@%  </tspan>
  <tspan x="15" y="170">    %@@@@@@%#*#+++*#%%%%%%@@@@@%@@%   </tspan>
  <tspan x="15" y="190">    %@@@@@%#*+:.....:::-=+#@@@@@@%@   </tspan>
  <tspan x="15" y="210">     @@@@@%%*=:.......:=**#%@@@@%%    </tspan>
  <tspan x="15" y="230">      @@%#*+=++*+=::=+*++==-+**+      </tspan>
  <tspan x="15" y="250">      %#**-+=##*=++=*=++#===:=+       </tspan>
  <tspan x="15" y="270">       %+:::.::::+:.+-::::....+       </tspan>
  <tspan x="15" y="290">        +:.....:=-. .-:......:        </tspan>
  <tspan x="15" y="310">         ..:----:.. ..::::....        </tspan>
  <tspan x="15" y="330">         .....::.::...........        </tspan>
  <tspan x="15" y="350">          :.....:====:.......         </tspan>
  <tspan x="15" y="370">       %%%#:..::*#*#**=:....*%        </tspan>
  <tspan x="15" y="390"> %##%%%%%%@#--###*+=+*##*::*#@%##%%   </tspan>
  <tspan x="15" y="410">#%%%%@@%%@%@%=-------::::-%%#%@%%%%%#*</tspan>
  <tspan x="15" y="430">%%%%%@@@@@%@@##+=+**=--=%*@@##@%%%%%%#</tspan>
  <tspan x="15" y="450">%%%%%@@@@%%@@*%%@@@@@@@%+*@@%*@%%%%%%%</tspan>
  <tspan x="15" y="470">%%@%%@@%%%#@%*=+*#####+:-*%%%##%%@%%@%</tspan>
  <tspan x="15" y="490">%%%%%%@%##%%##-:::::::::-#%%%#*%@%%%@%</tspan>
  <tspan x="15" y="510">%%@%%%@%#%%###=:......::-###%###%@%%@%</tspan>
</text>




<text>
  <tspan x="370" y="30"> Techs </tspan>
</text>
<image href="html.svg" x="370" y="520" height="30px" width="30px"/>
<image href="https://skillicons.dev/icons?i=css" x="370" y="60" height="30px" width="30px"/>
<image href="https://skillicons.dev/icons?i=ts" x="400" y="60" height="30px" width="30px"/>
<image href="https://skillicons.dev/icons?i=js" x="430" y="60" height="30px" width="30px"/>
<image href="https://skillicons.dev/icons?i=java" x="460" y="60" height="30px" width="30px"/>
<image href="https://skillicons.dev/icons?i=py" x="490" y="60" height="30px" width="30px"/>




</svg>