<?xml version="1.0" encoding="utf-8"?>
<svg xmlns="http://www.w3.org/2000/svg" font-family="Andale Mono,AndaleMono,Consolas,monospace" width="970px" height="565px" font-size="16px">
<style>
.curlyBrackets {fill: #ff0d65;}
.keyColor {fill: #db96ff;}
.valueColor {fill: #ffaf69;}
.commentColor {fill: #8b949e;}
text, tspan {white-space: pre;}
</style>

<rect width="970px" height="565px" fill="#161b22" rx="15"/>

<text x="15" y="30" fill="#c9d1d9">
  <tspan x="15" y="30">                @%%%@@%%%              </tspan>
  <tspan x="15" y="50">              %%%%%%%%%%%%% %@        </tspan>
  <tspan x="15" y="70">           %%%%%%@%%%%@@%%#%%%%  @%   </tspan>
  <tspan x="15" y="90">         %%%@@@@@@@@@@@%%%%@@@@%%%%   </tspan>
  <tspan x="15" y="110">      %%@@@@@@@@@@@@@@@@@@@@@@@@@@%@  </tspan>
  <tspan x="15" y="130">    %%@@@@@@@@@@@@@@@@@@@@@@@@@@@%#%  </tspan>
  <tspan x="15" y="150">   %%@@@@@@@@@@@@@@@@@@@@@@@@@@@@@@%  </tspan>
  <tspan x="15" y="170">    %@@@@@@%#*#+++*#%%%%%%@@@@@%@@%   </tspan>
  <tspan x="15" y="190">    %@@@@@%#*+:.....:::-=+#@@@@@@%@   </tspan>
  <tspan x="15" y="210">     @@@@@%%*=:.......:=**#%@@@@%%    </tspan>
  <tspan x="15" y="230">      @@%#*+=++*+=::=+*++==-+**+      </tspan>
  <tspan x="15" y="250">      %#**-+=##*=++=*=++#===:=+       </tspan>
  <tspan x="15" y="270">       %+:::.::::+:.+-::::....+       </tspan>
  <tspan x="15" y="290">        +:.....:=-. .-:......:        </tspan>
  <tspan x="15" y="310">         ..:----:.. ..::::....        </tspan>
  <tspan x="15" y="330">         .....::.::...........        </tspan>
  <tspan x="15" y="350">          :.....:====:.......         </tspan>
  <tspan x="15" y="370">       %%%#:..::*#*#**=:....*%        </tspan>
  <tspan x="15" y="390"> %##%%%%%%@#--###*+=+*##*::*#@%##%%   </tspan>
  <tspan x="15" y="410">#%%%%@@%%@%@%=-------::::-%%#%@%%%%%#*</tspan>
  <tspan x="15" y="430">%%%%%@@@@@%@@##+=+**=--=%*@@##@%%%%%%#</tspan>
  <tspan x="15" y="450">%%%%%@@@@%%@@*%%@@@@@@@%+*@@%*@%%%%%%%</tspan>
  <tspan x="15" y="470">%%@%%@@%%%#@%*=+*#####+:-*%%%##%%@%%@%</tspan>
  <tspan x="15" y="490">%%%%%%@%##%%##-:::::::::-#%%%#*%@%%%@%</tspan>
  <tspan x="15" y="510">%%@%%%@%#%%###=:......::-###%###%@%%@%</tspan>
  <tspan x="15" y="530">%#@@%%@##%%###=:......::-###%###%##%@%</tspan>
  <tspan x="15" y="550">@%@%#@%%##%###=:......::-###%###%####@</tspan>
</text>

<text x="390" y="25" fill="#c9d1d9">
  <tspan x="380" y="40">An introverted japanese student passionate about movies[450] 🎥,</tspan>
  <tspan x="380" y="65">animes[330], and series. He loves 🐶 and always goes out</tspan>
  <tspan x="380" y="90">for walks with them whenever possible (even better in the ❄️).</tspan>
  <tspan x="380" y="115">He has an inexplicable interest in design, especially</tspan>
  <tspan x="380" y="140">photography 📷, video editing, and interior design.</tspan>
  <tspan x="380" y="165">Currently immersed in the world of 🖥️ having fun (and getting </tspan>
  <tspan x="380" y="190">frustrated with bugs! 💢).</tspan>



  <tspan x="380" y="230">----------</tspan>

  <tspan x="385" y="270" class="curlyBrackets">{</tspan> 
  <tspan x="420" y="295" class="keyColor">"main-role"</tspan> : <tspan x="542" y="295" class="valueColor">"Front-end dev"</tspan>, <tspan x="700" y="295" class="commentColor">#maybe a Full-stack soon?</tspan>
  <tspan x="420" y="320" class="keyColor">"temprature"</tspan> : <tspan x="552" y="320" class="valueColor">"10°C isnt really cold"</tspan>,
  <tspan x="420" y="345" class="keyColor">"loves"</tspan> : [<tspan x="524" y="345" class="valueColor">"Interstelar", "One Piece", "Mandalorian"</tspan> ],
  <tspan x="420" y="370" class="keyColor">"location"</tspan> : <tspan x="535" y="370" class="valueColor">"Vinland"</tspan>, <tspan x="640" y="370" class="commentColor">#You have no enemies</tspan>
  <tspan x="420" y="395" class="keyColor">"mbti"</tspan> : <tspan x="500" y="395" class="valueColor">"INFJ"</tspan>,
  <tspan x="420" y="420" class="keyColor">"design"</tspan> : <tspan x="520" y="420" class="valueColor">"design is my passion"</tspan>,
  <tspan x="420" y="445" class="keyColor">"nostalgia"</tspan> : <tspan x="545" y="445" class="valueColor">"pure good feelings"</tspan>, <tspan x="745" y="445" class="commentColor">#minecraft aventureiros</tspan>
  <tspan x="420" y="470" class="keyColor">"food"</tspan> : <tspan x="500" y="470" class="valueColor">"potato potato."</tspan>,
  <tspan x="420" y="495" class="keyColor">"animals"</tspan> : [<tspan x="540" y="495" class="valueColor">"Dog", "Cat", "Penguin", "Capybara"</tspan> ],
  <tspan x="420" y="520" class="keyColor">"center-div"</tspan> : <tspan x="552" y="520" class="valueColor">"IMPOSSIBLE."</tspan>, <tspan x="695" y="520" class="commentColor">#not kidding, impossible.</tspan>
  <tspan x="385" y="545" class="curlyBrackets">}</tspan> 





</text>

</svg>