<svg width="360" height="210" xmlns="http://www.w3.org/2000/svg">
<style>
svg {
  font-family: -apple-system, BlinkMacSystemFont, Segoe UI, Helvetica, Arial, sans-serif, Apple Color Emoji, Segoe UI Emoji;
  font-size: 14px;
  line-height: 21px;
}

#background {
  width: calc(100% - 10px);
  height: calc(100% - 10px);
  fill: #00000000;
  stroke: #8B8B8B22;
  stroke-width: 1px;
  rx: 6px;
  ry: 6px;
}

foreignObject {
  width: calc(100% - 10px - 32px);
  height: calc(100% - 10px - 24px);
}

h2 {
  margin-top: 0;
  margin-bottom: 0.75em;
  line-height: 24px;
  font-size: 16px;
  font-weight: 600;
  color: rgb(72, 148, 224);
  fill: rgb(72, 148, 224);
}

ul {
  list-style: none;
  padding-left: 0;
  margin-top: 0;
  margin-bottom: 0;
}

li {
  display: inline-flex;
  font-size: 12px;
  margin-right: 2ch;
  align-items: center;
  flex-wrap: nowrap;
  transform: translateX(-500%);
  animation-duration: 1s;
  animation-name: slideIn;
  animation-function: ease-in-out;
  animation-fill-mode: forwards;
}

@keyframes slideIn {
  to {
    transform: translateX(0);
  }
}

div.ellipsis {
  height: 100%;
  overflow: hidden;
  text-overflow: ellipsis;
}

.octicon {
  fill: rgb(248, 96, 105);
  margin-right: 0.5ch;
  vertical-align: top;
}

.progress {
  display: flex;
  height: 8px;
  overflow: hidden;
  background-color: #00000000;
  border-radius: 6px;
  outline: 1px solid transparent;
  margin-bottom: 1em;
}

.lang {
  font-weight: 600;
  margin-right: 4px;
  color: rgb(135, 135, 135);
}

.percent {
  color: rgb(150,150,150)
}
</style>
<g>
<rect x="5" y="5" id="background" />
<g>
<foreignObject x="21" y="17" width="318" height="176">
<div xmlns="http://www.w3.org/1999/xhtml" class="ellipsis">

<h2>Most Used Languages</h2>

<div>
<span class="progress">
<span style="background-color: #3178c6;width: 25.704%;margin-right: 0.525%;" class="progress-item"></span><span style="background-color: #b07219;width: 25.430%;margin-right: 0.519%;" class="progress-item"></span><span style="background-color: #663399;width: 12.691%;margin-right: 0.259%;" class="progress-item"></span><span style="background-color: #e34c26;width: 11.606%;margin-right: 0.237%;" class="progress-item"></span><span style="background-color: #4F5D95;width: 6.441%;margin-right: 0.131%;" class="progress-item"></span><span style="background-color: #f1e05a;width: 6.372%;margin-right: 0.130%;" class="progress-item"></span><span style="background-color: #3572A5;width: 3.995%;margin-right: 0.082%;" class="progress-item"></span><span style="background-color: #555555;width: 3.691%;margin-right: 0.075%;" class="progress-item"></span><span style="background-color: #178600;width: 0.887%;margin-right: 0.018%;" class="progress-item"></span><span style="background-color: #e38c00;width: 0.792%;margin-right: 0.016%;" class="progress-item"></span><span style="background-color: #a53b70;width: 0.281%;margin-right: 0.006%;" class="progress-item"></span><span style="background-color: #5B2063;width: 0.066%;margin-right: 0.001%;" class="progress-item"></span><span style="background-color: #384d54;width: 0.044%;margin-right: 0.000%;" class="progress-item"></span>
</span>
</div>

<ul>


<li style="animation-delay: 0ms;">
<svg xmlns="http://www.w3.org/2000/svg" class="octicon" style="fill:#3178c6;"
viewBox="0 0 16 16" version="1.1" width="16" height="16"><path
fill-rule="evenodd" d="M8 4a4 4 0 100 8 4 4 0 000-8z"></path></svg>
<span class="lang">TypeScript</span>
<span class="percent">26.23%</span>
</li>


<li style="animation-delay: 150ms;">
<svg xmlns="http://www.w3.org/2000/svg" class="octicon" style="fill:#b07219;"
viewBox="0 0 16 16" version="1.1" width="16" height="16"><path
fill-rule="evenodd" d="M8 4a4 4 0 100 8 4 4 0 000-8z"></path></svg>
<span class="lang">Java</span>
<span class="percent">25.95%</span>
</li>


<li style="animation-delay: 300ms;">
<svg xmlns="http://www.w3.org/2000/svg" class="octicon" style="fill:#663399;"
viewBox="0 0 16 16" version="1.1" width="16" height="16"><path
fill-rule="evenodd" d="M8 4a4 4 0 100 8 4 4 0 000-8z"></path></svg>
<span class="lang">CSS</span>
<span class="percent">12.95%</span>
</li>


<li style="animation-delay: 450ms;">
<svg xmlns="http://www.w3.org/2000/svg" class="octicon" style="fill:#e34c26;"
viewBox="0 0 16 16" version="1.1" width="16" height="16"><path
fill-rule="evenodd" d="M8 4a4 4 0 100 8 4 4 0 000-8z"></path></svg>
<span class="lang">HTML</span>
<span class="percent">11.84%</span>
</li>


<li style="animation-delay: 600ms;">
<svg xmlns="http://www.w3.org/2000/svg" class="octicon" style="fill:#4F5D95;"
viewBox="0 0 16 16" version="1.1" width="16" height="16"><path
fill-rule="evenodd" d="M8 4a4 4 0 100 8 4 4 0 000-8z"></path></svg>
<span class="lang">PHP</span>
<span class="percent">6.57%</span>
</li>


<li style="animation-delay: 750ms;">
<svg xmlns="http://www.w3.org/2000/svg" class="octicon" style="fill:#f1e05a;"
viewBox="0 0 16 16" version="1.1" width="16" height="16"><path
fill-rule="evenodd" d="M8 4a4 4 0 100 8 4 4 0 000-8z"></path></svg>
<span class="lang">JavaScript</span>
<span class="percent">6.50%</span>
</li>


<li style="animation-delay: 900ms;">
<svg xmlns="http://www.w3.org/2000/svg" class="octicon" style="fill:#3572A5;"
viewBox="0 0 16 16" version="1.1" width="16" height="16"><path
fill-rule="evenodd" d="M8 4a4 4 0 100 8 4 4 0 000-8z"></path></svg>
<span class="lang">Python</span>
<span class="percent">4.08%</span>
</li>


<li style="animation-delay: 1050ms;">
<svg xmlns="http://www.w3.org/2000/svg" class="octicon" style="fill:#555555;"
viewBox="0 0 16 16" version="1.1" width="16" height="16"><path
fill-rule="evenodd" d="M8 4a4 4 0 100 8 4 4 0 000-8z"></path></svg>
<span class="lang">C</span>
<span class="percent">3.77%</span>
</li>


<li style="animation-delay: 1200ms;">
<svg xmlns="http://www.w3.org/2000/svg" class="octicon" style="fill:#178600;"
viewBox="0 0 16 16" version="1.1" width="16" height="16"><path
fill-rule="evenodd" d="M8 4a4 4 0 100 8 4 4 0 000-8z"></path></svg>
<span class="lang">C#</span>
<span class="percent">0.91%</span>
</li>


<li style="animation-delay: 1350ms;">
<svg xmlns="http://www.w3.org/2000/svg" class="octicon" style="fill:#e38c00;"
viewBox="0 0 16 16" version="1.1" width="16" height="16"><path
fill-rule="evenodd" d="M8 4a4 4 0 100 8 4 4 0 000-8z"></path></svg>
<span class="lang">TSQL</span>
<span class="percent">0.81%</span>
</li>


<li style="animation-delay: 1500ms;">
<svg xmlns="http://www.w3.org/2000/svg" class="octicon" style="fill:#a53b70;"
viewBox="0 0 16 16" version="1.1" width="16" height="16"><path
fill-rule="evenodd" d="M8 4a4 4 0 100 8 4 4 0 000-8z"></path></svg>
<span class="lang">Sass</span>
<span class="percent">0.29%</span>
</li>


<li style="animation-delay: 1650ms;">
<svg xmlns="http://www.w3.org/2000/svg" class="octicon" style="fill:#5B2063;"
viewBox="0 0 16 16" version="1.1" width="16" height="16"><path
fill-rule="evenodd" d="M8 4a4 4 0 100 8 4 4 0 000-8z"></path></svg>
<span class="lang">Gherkin</span>
<span class="percent">0.07%</span>
</li>


<li style="animation-delay: 1800ms;">
<svg xmlns="http://www.w3.org/2000/svg" class="octicon" style="fill:#384d54;"
viewBox="0 0 16 16" version="1.1" width="16" height="16"><path
fill-rule="evenodd" d="M8 4a4 4 0 100 8 4 4 0 000-8z"></path></svg>
<span class="lang">Dockerfile</span>
<span class="percent">0.04%</span>
</li>



</ul>

</div>
</foreignObject>
</g>
</g>
</svg>
